<?xml version="1.0" standalone="no"?><!DOCTYPE svg PUBLIC "-//W3C//DTD SVG 1.1//EN" "http://www.w3.org/Graphics/SVG/1.1/DTD/svg11.dtd"><svg t="1607568997602" class="icon" viewBox="0 0 1024 1024" version="1.1" xmlns="http://www.w3.org/2000/svg" p-id="4456" xmlns:xlink="http://www.w3.org/1999/xlink" width="200" height="200"><path d="M832 960a64 64 0 0 0 128 0c0-35.34-64-128-64-128s-64 92.66-64 128z m-96-640h-89.64c-37.34-46.22-89.66-79.62-150.36-91.16V167.2S733.2 192 736 192c17.42 0 32-14.96 32-33.78V97.78c0-18.84-14.52-33.78-32-33.78-2.8 0 12.24-1.58-240 26.64V32a32 32 0 0 0-32-32h-32a32 32 0 0 0-32 32v58.64C147.76 62.42 162.76 64 160 64c-17.44 0-32 14.94-32 33.78v60.44C128 177.04 142.52 192 160 192c2.86 0 240-24.8 240-24.8v61.64c-60.7 11.54-113.02 44.94-150.36 91.16H32a32 32 0 0 0-32 32v32a32 32 0 0 0 32 32h269.5a159.78 159.78 0 0 1 293 0H736a192.2 192.2 0 0 1 192 192v64h-128v-64a64 64 0 0 0-64-64h-141.5a159.78 159.78 0 0 1-293 0H32a32 32 0 0 0-32 32v32a32 32 0 0 0 32 32h217.64c46.92 58.1 117.86 96 198.36 96s151.44-37.9 198.36-96H704v32a96 96 0 0 0 96 96h128a96 96 0 0 0 96-96v-64c0-158.8-129.2-288-288-288z" p-id="4457"></path></svg>