<?xml version="1.0" encoding="utf-8"?>
<!-- Generator: Adobe Illustrator 23.0.0, SVG Export Plug-In . SVG Version: 6.00 Build 0)  -->
<svg version="1.1" id="图层_1" xmlns="http://www.w3.org/2000/svg" xmlns:xlink="http://www.w3.org/1999/xlink" x="0px" y="0px"
	 viewBox="0 0 144 144" style="enable-background:new 0 0 144 144;" xml:space="preserve">
<linearGradient id="SVGID_1_" gradientUnits="userSpaceOnUse" x1="-222.8953" y1="490.1285" x2="-222.8953" y2="489.6288" gradientTransform="matrix(140 0 0 -140 31275 68655.6016)">
	<stop  offset="0" style="stop-color:#6981FF"/>
	<stop  offset="1" style="stop-color:#4762F1"/>
</linearGradient>
<path class="st0" d="M69.7,37.6c-19.3,0-35,15.6-35,35s15.6,35,35,35s35-15.6,35-35S89,37.6,69.7,37.6z M73.5,94.7
	c-0.3,1.7-2,2.8-3.7,2.4c-1.7-0.3-2.8-2-2.4-3.7c0.3-1.7,2-2.8,3.7-2.4C72.8,91.3,73.8,92.9,73.5,94.7z M71.1,85.2
	c0,0-2.3,0.1-2.9,0.2c-2.7,0.3-5,2.4-5.6,5.2c0,0-0.8,3.6-0.8,3.9c-0.3,1.4-1.7,2.3-3.1,2c-1.4-0.3-2.3-1.7-2-3.1
	c0-0.3,5.9-27.8,5.9-27.8c0.3-1.4,1.7-2.3,3.1-2c1.4,0.3,2.3,1.7,2,3.1l-2.4,11.3l-0.4,2.2c0,0.1,0.1,0.3,0.2,0.2
	c0.3,0,0.8-0.1,1.5-0.2c1.3-0.2,3.9-0.3,3.9-0.3c7.1-0.4,12.8-6.3,12.8-13.6c0-7.7-6.5-14-14.3-13.6c-7,0.3-12.7,6.1-12.9,13.2
	c0,1.6,0.2,3.3,0.7,4.8c0.4,1.4-0.3,2.9-1.6,3.3c-1.4,0.4-2.9-0.3-3.3-1.6c-0.6-2-1-4-1-6.1c0-10.4,8.5-18.9,18.9-18.9
	s18.9,8.4,18.9,18.9C88.5,76.3,80.9,84.4,71.1,85.2z" fill="url(#SVGID_1_)"/>
</svg>
