<?xml version="1.0" encoding="UTF-8"?>
<svg width="268px" height="268px" viewBox="0 0 268 268" version="1.1" xmlns="http://www.w3.org/2000/svg" xmlns:xlink="http://www.w3.org/1999/xlink">
    <title>Combined Shape</title>
    <defs>
        <linearGradient x1="94.3877753%" y1="100%" x2="13.9795173%" y2="2.63233333e-06%" id="linearGradient-1">
            <stop stop-color="#5A81FF" offset="0%"></stop>
            <stop stop-color="#E40C5B" offset="36.8022909%"></stop>
            <stop stop-color="#FF4C3B" offset="100%"></stop>
        </linearGradient>
    </defs>
    <g id="首页" stroke="none" stroke-width="1" fill="none" fill-rule="evenodd">
        <path d="M134,0 C208.006,0 268,59.994 268,134 L268,134 L267.982048,136.21593 C266.798719,209.199881 207.26594,268 134,268 L134,268 L131.78407,267.982048 C58.8001194,266.798719 0,207.26594 0,134 L0,134 L0.017952218,131.78407 C1.2012812,58.8001194 60.73406,0 134,0 Z M134.547,12.579 L132.539081,12.5952672 C66.4061962,13.6675295 13.126,67.61258 13.126,134 C13.126,201.059 67.488,255.42 134.547,255.42 L134.547,255.42 L136.554919,255.403733 C202.687784,254.33151 255.967,200.38841 255.967,134 L255.967,134 L255.950733,131.99211 C254.87851,65.8601763 200.93541,12.579 134.547,12.579 L134.547,12.579 Z M134,21.877 L135.854164,21.8920212 C196.92294,22.8821525 246.122,72.69524 246.122,134 L246.122,134 L246.106979,135.854164 C245.116867,196.92294 195.30476,246.122 134,246.122 L134,246.122 L132.145865,246.106979 C71.07802,245.116867 21.877,195.30476 21.877,134 C21.877,72.076 72.077,21.877 134,21.877 L134,21.877 Z M134.273,35.004 L132.64047,35.0172258 C78.87142,35.8890125 35.551,79.74824 35.551,133.727 C35.551,188.249 79.751,232.449 134.273,232.449 L134.273,232.449 L135.905559,232.435774 C189.67558,231.563968 232.996,187.70378 232.996,133.727 L232.996,133.727 L232.982774,132.094411 C232.110968,78.3234399 188.25077,35.004 134.273,35.004 L134.273,35.004 Z M120.937,61.842 L121.055,62.05 L121.17,61.851 L191.275,183.277 L176.718,183.277 L160.333,154.897 L159.416173,154.625914 C151.144476,152.22754 142.327357,150.949 133.076,150.949 L133.076,150.949 L131.913004,150.955905 C126.883311,151.015694 121.983571,151.463 117.233,152.269 L117.233,152.269 L125.112,138.622 L126.442134,138.542028 C128.659056,138.4205 130.875167,138.358 133.076,138.358 L133.076,138.358 L134.314385,138.364812 C140.099533,138.42832 145.962733,138.934933 151.643,139.844 L151.643,139.844 L121.05,86.857 L70.123,175.066 L62.844,162.461 L120.937,61.842 Z M121.162,103.112 L128.44,115.718 L100.57,163.991 L101.509978,163.713686 C111.275039,160.898374 122.627094,159.638 133.356,159.638 L133.356,159.638 L134.7,159.646125 L134.7,159.646125 L136.047,159.67 L137.306143,159.70648 C143.18516,159.908769 149.100067,160.558867 154.785,161.621 L154.785,161.621 L164.083,177.725 L163.215484,177.414304 C153.939082,174.142416 143.931515,172.227 133.356,172.227 L133.356,172.227 L132.477438,172.230951 C116.686977,172.373067 102.177418,176.343218 89.51,183.159 L89.51,183.159 L89.714,182.795 L89.435,183.277 L74.878,183.277 L121.162,103.112 Z M142.489,57.719 L203.084,162.673 L195.805,175.278 L127.931,57.719 L142.489,57.719 Z" id="Combined-Shape" fill="url(#linearGradient-1)"></path>
    </g>
</svg>